<svg xmlns="http://www.w3.org/2000/svg" xmlns:xlink="http://www.w3.org/1999/xlink" version="1.1" width="818.7515pt" height="787.2006pt" viewBox="0 0 818.7515 787.2006">
<defs>
<clipPath id="clip_0">
<path transform="matrix(1,0,0,-1,0,787.2006)" d="M36 36H782.7515V751.2006H36Z"/>
</clipPath>
<clipPath id="clip_1">
<path transform="matrix(1,0,0,-1,0,787.2006)" d="M310.1702 352.6423H508.5813V644.0141H310.1702Z"/>
</clipPath>
</defs>
<g clip-path="url(#clip_0)">
<path transform="matrix(1,0,0,-1,0,787.2006)" d="M409.5501 750.2006C204.0887 750.2006 36.99992 600.0862 37 415.4876V165.5298C37 143.7356 54.68445 126.1793 76.29239 126.1792 98.08306 126.177 115.5849 143.9221 115.5848 165.5298V415.4876C115.5848 556.6841 247.3161 671.6158 409.3754 671.6158 571.4348 671.6158 703.1079 556.6841 703.1079 415.4876V165.5298C703.1079 143.7356 720.7923 126.1793 742.4003 126.1792 764.0117 126.177 781.751 143.9221 781.7509 165.5298V415.4876C782.1234 600.0862 615.0112 750.2006 409.5501 750.2006ZM179.1511 351.0481C169.4641 351.0473 161.6297 343.2129 161.6296 333.5266V54.46332C161.6304 44.77749 169.6501 37.00029 179.1511 37H289.228C298.9151 36.99958 306.7495 44.77707 306.7495 54.46332V333.5266C306.7488 343.2137 298.9143 351.0482 289.228 351.0481H179.1511ZM529.8721 351.0481C520.1851 351.0473 512.3506 343.2129 512.3506 333.5266V54.46332C512.3514 44.77749 520.1859 37 529.8721 37H639.949C649.4509 36.99958 657.4705 44.77707 657.4705 54.46332V333.5266C657.4697 343.2137 649.6352 351.0481 639.949 351.0481H529.8721ZM529.8721 351.0481" fill="#ea4d3d"/>
</g>
<g clip-path="url(#clip_1)">
<path transform="matrix(1,0,0,-1,0,787.2006)" d="M318.2915 643.0141C314.3864 643.0141 311.1702 639.8198 311.1702 635.9155V360.741C311.1704 356.8357 314.3872 353.6424 318.2915 353.6423H500.4601C504.3651 353.6423 507.5813 356.8367 507.5813 360.741V635.9155C507.5811 639.8208 504.3663 643.0141 500.4601 643.0141H318.2915ZM409.3757 610.8893C431.0179 610.8893 448.6218 593.2613 448.6218 571.6207 448.6218 549.9786 431.0164 532.3747 409.3757 532.3746 387.7344 532.3746 370.1297 549.9801 370.1297 571.6207 370.1297 593.2614 387.7336 610.8893 409.3757 610.8893ZM409.3757 596.6694C395.5648 596.6694 384.327 585.4309 384.327 571.6207 384.327 557.8082 395.5632 546.5719 409.3757 546.5719 423.1875 546.5719 434.4245 557.8082 434.4245 571.6207 434.4245 585.4309 423.1868 596.6694 409.3757 596.6694ZM409.3757 582.2687C415.2581 582.2691 420.0237 577.5035 420.0237 571.6207 420.0242 565.7383 415.2586 560.9727 409.3757 560.9727 403.4934 560.9722 398.7278 565.7399 398.7278 571.6207 398.7273 577.503 403.4929 582.2687 409.3757 582.2687ZM409.3757 512.5255C442.4365 512.5255 469.33 485.632 469.33 452.5713 469.33 419.5106 442.4372 392.6171 409.3757 392.6171 376.3143 392.6171 349.4216 419.5106 349.4215 452.5713 349.4215 485.632 376.315 512.5256 409.3757 512.5255ZM409.3757 484.1309C391.9751 484.1309 377.8162 469.9713 377.8161 452.5713 377.8161 435.1707 391.9744 421.0117 409.3757 421.0117 426.7771 421.0117 440.9353 435.1699 440.9354 452.5713 440.9354 469.9712 426.7764 484.1309 409.3757 484.1309ZM409.3757 463.9427C415.2581 463.9432 420.0237 459.1776 420.0237 453.2947 420.0237 447.414 415.2586 442.6467 409.3757 442.6468 403.4934 442.6463 398.7278 447.4139 398.7278 453.2947 398.7273 459.1771 403.4929 463.9428 409.3757 463.9427ZM409.3757 463.9427" fill="#ea4d3d"/>
</g>
</svg>
